<svg width="44" height="44" viewBox="0 0 44 44" fill="none" xmlns="http://www.w3.org/2000/svg">
<path d="M8.94419 8.57416C12.3567 1.44578 18.9606 0.485223 21.8359 0.895989L21.9544 36.5142H1.62149C-1.14644 35.1681 0.247004 30.8977 1.28972 28.9308C5.70704 26.7695 6.84296 21.221 6.85876 18.7169C6.93459 15.8352 8.28064 10.7544 8.94419 8.57416Z" fill="white"/>
<path d="M34.3866 8.57416C30.9741 1.44578 24.3702 0.485223 21.4949 0.895989L21.3764 36.5142H41.7093C44.4773 35.1681 43.0838 30.8977 42.0411 28.9308C37.6238 26.7695 36.4878 21.221 36.472 18.7169C36.3962 15.8352 35.0502 10.7544 34.3866 8.57416Z" fill="white"/>
<circle cx="21.6654" cy="37.8252" r="5.8365" fill="white"/>
</svg>
