<svg width="25" height="25" viewBox="0 0 25 25" fill="none" xmlns="http://www.w3.org/2000/svg">
<path d="M5.22772 4.94226C7.09415 1.04349 10.706 0.518121 12.2787 0.742784L12.3435 20.2237H1.22266C-0.291228 19.4875 0.4709 17.1519 1.0412 16.0761C3.45719 14.894 4.07848 11.8593 4.08712 10.4897C4.12859 8.91362 4.8648 6.13471 5.22772 4.94226Z" fill="#4A3232"/>
<path d="M19.1434 4.94227C17.2769 1.0435 13.665 0.518129 12.0924 0.742792L12.0276 20.2237H23.1484C24.6623 19.4875 23.9002 17.1519 23.3299 16.0761C20.9139 14.894 20.2926 11.8593 20.284 10.4897C20.2425 8.91363 19.5063 6.13471 19.1434 4.94227Z" fill="#4A3232"/>
<circle cx="12.1854" cy="20.9408" r="3.1922" fill="#4A3232"/>
</svg>
