<svg width="31" height="28" viewBox="0 0 31 28" fill="none" xmlns="http://www.w3.org/2000/svg">
<path d="M16.7705 0.578842C20.3716 0.578842 23.613 1.67458 25.9424 3.42162C28.2713 5.1685 29.665 7.54349 29.665 10.1247C29.665 12.706 28.2713 15.081 25.9424 16.8279C23.613 18.5749 20.3716 19.6706 16.7705 19.6706C13.1695 19.6706 9.92898 18.5749 7.59961 16.8279C5.27038 15.0809 3.87598 12.7062 3.87598 10.1247C3.87599 7.54331 5.27039 5.16853 7.59961 3.42162C9.92898 1.67463 13.1695 0.578849 16.7705 0.578842Z" fill="#4A3232" stroke="#4A3232"/>
<path d="M6.17866 22.8196C5.41352 23.3674 4.38417 22.6513 4.63175 21.7434L6.68897 14.1995C6.87075 13.5329 7.65765 13.2471 8.22482 13.6417L12.5255 16.6336C13.0926 17.0282 13.0983 17.8653 12.5365 18.2676L6.17866 22.8196Z" fill="#4A3232"/>
<circle cx="12.3148" cy="10.4393" r="1.16347" fill="white"/>
<circle cx="16.7328" cy="10.4393" r="1.16347" fill="white"/>
<circle cx="21.1498" cy="10.4393" r="1.16347" fill="white"/>
</svg>
