<svg width="100" height="85" viewBox="0 0 100 85" fill="none" xmlns="http://www.w3.org/2000/svg">
<path d="M49.7783 0.5C63.4406 0.500047 75.7867 4.13613 84.7021 9.98828C93.6218 15.8433 99.0557 23.8748 99.0557 32.6748C99.0556 41.4747 93.6218 49.5064 84.7021 55.3613C75.7867 61.2135 63.4406 64.8496 49.7783 64.8496C36.1161 64.8496 23.77 61.2133 14.8545 55.3613C5.93481 49.5064 0.500085 41.4747 0.5 32.6748C0.5 23.8748 5.93474 15.8433 14.8545 9.98828C23.77 4.13619 36.116 0.5 49.7783 0.5Z" fill="white" stroke="#A8D5BA"/>
<path d="M17.5537 65.8491C20.0212 65.8491 22.0518 67.9278 22.0518 70.5298C22.0516 73.1317 20.0211 75.2104 17.5537 75.2104C15.0863 75.2104 13.0558 73.1317 13.0557 70.5298C13.0557 67.9278 15.0862 65.8491 17.5537 65.8491Z" fill="white" stroke="#A8D5BA"/>
<path d="M3.67676 77.325C5.41439 77.325 6.8533 78.7901 6.85352 80.6355C6.85352 82.4811 5.41452 83.947 3.67676 83.947C1.93902 83.947 0.5 82.4811 0.5 80.6355C0.500211 78.7901 1.93914 77.325 3.67676 77.325Z" fill="white" stroke="#A8D5BA"/>
<path d="M15.1737 30.7695H15.8777V31.0555C15.8777 31.5762 15.7897 32.0822 15.6137 32.5735C15.4377 33.0575 15.1847 33.4902 14.8547 33.8715C14.5247 34.2528 14.1177 34.5462 13.6337 34.7515L13.1827 34.0695C13.608 33.8862 13.9673 33.6368 14.2607 33.3215C14.554 33.0062 14.7777 32.6542 14.9317 32.2655C15.093 31.8695 15.1737 31.4662 15.1737 31.0555V30.7695ZM15.3497 30.7695H16.0427V31.0555C16.0427 31.4368 16.1233 31.8108 16.2847 32.1775C16.446 32.5368 16.677 32.8632 16.9777 33.1565C17.2783 33.4425 17.634 33.6698 18.0447 33.8385L17.6157 34.5315C17.1317 34.3335 16.721 34.0585 16.3837 33.7065C16.0463 33.3472 15.7897 32.9402 15.6137 32.4855C15.4377 32.0235 15.3497 31.5468 15.3497 31.0555V30.7695ZM13.3807 30.2965H17.8027V31.0335H13.3807V30.2965ZM15.1737 29.1305H16.0427V30.6265H15.1737V29.1305ZM20.6187 28.9875H21.4877V35.7085H20.6187V28.9875ZM19.0567 31.5175H20.9267V32.2765H19.0567V31.5175ZM18.4957 29.1635H19.3647V34.8505H18.4957V29.1635ZM17.7257 35.3015H18.5067V35.5325C18.5067 35.9725 18.404 36.3795 18.1987 36.7535C17.9933 37.1202 17.711 37.4502 17.3517 37.7435C16.9997 38.0295 16.5963 38.2715 16.1417 38.4695C15.687 38.6675 15.2067 38.8068 14.7007 38.8875L14.3707 38.1725C14.7153 38.1212 15.0527 38.0405 15.3827 37.9305C15.7127 37.8132 16.0207 37.6738 16.3067 37.5125C16.5927 37.3438 16.842 37.1568 17.0547 36.9515C17.2673 36.7462 17.4323 36.5225 17.5497 36.2805C17.667 36.0385 17.7257 35.7892 17.7257 35.5325V35.3015ZM17.8577 35.3015H18.6387V35.5325C18.6387 35.7892 18.6973 36.0385 18.8147 36.2805C18.932 36.5225 19.097 36.7462 19.3097 36.9515C19.5223 37.1568 19.7717 37.3438 20.0577 37.5125C20.3437 37.6738 20.6517 37.8132 20.9817 37.9305C21.3117 38.0405 21.649 38.1212 21.9937 38.1725L21.6637 38.8875C21.1577 38.8068 20.6773 38.6675 20.2227 38.4695C19.768 38.2715 19.361 38.0295 19.0017 37.7435C18.6497 37.4502 18.371 37.1202 18.1657 36.7535C17.9603 36.3795 17.8577 35.9725 17.8577 35.5325V35.3015ZM24.4128 29.2405H25.3148V30.3405H30.1328V29.2405H31.0348V32.9035H24.4128V29.2405ZM25.3148 31.0555V32.1775H30.1328V31.0555H25.3148ZM23.2248 34.0145H32.2118V34.7625H23.2248V34.0145ZM27.2728 32.5625H28.1748V34.2235H27.2728V32.5625ZM27.2508 35.4115H28.0428V35.6755C28.0428 36.1082 27.9401 36.5042 27.7348 36.8635C27.5368 37.2228 27.2618 37.5418 26.9098 37.8205C26.5578 38.0918 26.1545 38.3155 25.6998 38.4915C25.2451 38.6748 24.7648 38.8068 24.2588 38.8875L23.9178 38.1725C24.3725 38.1138 24.7978 38.0112 25.1938 37.8645C25.5971 37.7178 25.9528 37.5345 26.2608 37.3145C26.5688 37.0945 26.8108 36.8488 26.9868 36.5775C27.1628 36.2988 27.2508 35.9982 27.2508 35.6755V35.4115ZM27.3938 35.4115H28.1748V35.6755C28.1748 35.9982 28.2628 36.2988 28.4388 36.5775C28.6148 36.8488 28.8568 37.0945 29.1648 37.3145C29.4728 37.5345 29.8285 37.7178 30.2318 37.8645C30.6351 38.0112 31.0641 38.1138 31.5188 38.1725L31.1778 38.8875C30.6645 38.8068 30.1805 38.6748 29.7258 38.4915C29.2711 38.3155 28.8678 38.0918 28.5158 37.8205C28.1711 37.5418 27.8961 37.2228 27.6908 36.8635C27.4928 36.5042 27.3938 36.1082 27.3938 35.6755V35.4115ZM33.7949 30.0655H38.2829V30.8135H33.7949V30.0655ZM35.3459 32.9145H36.2479V36.2805H35.3459V32.9145ZM37.9089 30.0655H38.8109V30.6045C38.8109 31.0078 38.7963 31.5358 38.7669 32.1885C38.7449 32.8412 38.6643 33.6295 38.5249 34.5535L37.6229 34.4765C37.7696 33.5745 37.8539 32.8045 37.8759 32.1665C37.8979 31.5285 37.9089 31.0078 37.9089 30.6045V30.0655ZM40.0539 28.9765H40.9669V38.9315H40.0539V28.9765ZM40.7139 33.1345H42.5509V33.9155H40.7139V33.1345ZM33.3549 36.7535L33.2449 35.9945C33.8389 35.9872 34.4879 35.9798 35.1919 35.9725C35.9033 35.9578 36.6219 35.9285 37.3479 35.8845C38.0813 35.8405 38.7816 35.7782 39.4489 35.6975L39.5039 36.3795C38.8146 36.4895 38.1069 36.5702 37.3809 36.6215C36.6623 36.6728 35.9583 36.7095 35.2689 36.7315C34.5796 36.7462 33.9416 36.7535 33.3549 36.7535ZM54.1248 28.9765H54.9938V38.9315H54.1248V28.9765ZM52.4418 32.9695H54.3558V33.7175H52.4418V32.9695ZM51.8698 29.1965H52.7168V38.4145H51.8698V29.1965ZM46.9088 35.7085H47.5578C48.0492 35.7085 48.4928 35.7048 48.8888 35.6975C49.2922 35.6828 49.6735 35.6535 50.0328 35.6095C50.3995 35.5655 50.7735 35.5032 51.1548 35.4225L51.2428 36.1815C50.8468 36.2622 50.4618 36.3245 50.0878 36.3685C49.7212 36.4125 49.3325 36.4418 48.9218 36.4565C48.5185 36.4712 48.0638 36.4785 47.5578 36.4785H46.9088V35.7085ZM46.9088 30.1865H50.6048V30.9345H47.8218V36.0605H46.9088V30.1865ZM59.25 34.9055H60.163V36.5225H59.25V34.9055ZM63.43 28.9765H64.343V38.9315H63.43V28.9765ZM64.057 33.2005H65.894V33.9705H64.057V33.2005ZM56.698 37.0395L56.555 36.2695C57.1563 36.2695 57.809 36.2658 58.513 36.2585C59.2243 36.2438 59.9503 36.2145 60.691 36.1705C61.4316 36.1265 62.1466 36.0568 62.836 35.9615L62.902 36.6325C62.1906 36.7572 61.4646 36.8488 60.724 36.9075C59.9906 36.9662 59.2793 37.0028 58.59 37.0175C57.908 37.0322 57.2773 37.0395 56.698 37.0395ZM56.731 30.1865H62.671V30.9235H56.731V30.1865ZM59.712 31.4955C60.174 31.4955 60.581 31.5725 60.933 31.7265C61.285 31.8805 61.56 32.0968 61.758 32.3755C61.956 32.6468 62.055 32.9695 62.055 33.3435C62.055 33.7102 61.956 34.0328 61.758 34.3115C61.56 34.5902 61.285 34.8065 60.933 34.9605C60.581 35.1072 60.174 35.1805 59.712 35.1805C59.25 35.1805 58.8393 35.1072 58.48 34.9605C58.128 34.8065 57.853 34.5902 57.655 34.3115C57.4643 34.0328 57.369 33.7102 57.369 33.3435C57.369 32.9695 57.4643 32.6468 57.655 32.3755C57.853 32.0968 58.128 31.8805 58.48 31.7265C58.8393 31.5725 59.25 31.4955 59.712 31.4955ZM59.712 32.2105C59.2646 32.2105 58.9053 32.3132 58.634 32.5185C58.3626 32.7238 58.227 32.9988 58.227 33.3435C58.227 33.6808 58.3626 33.9522 58.634 34.1575C58.9053 34.3628 59.2646 34.4655 59.712 34.4655C60.152 34.4655 60.5076 34.3628 60.779 34.1575C61.0503 33.9522 61.186 33.6808 61.186 33.3435C61.186 32.9988 61.0503 32.7238 60.779 32.5185C60.5076 32.3132 60.152 32.2105 59.712 32.2105ZM59.25 28.9985H60.163V30.6705H59.25V28.9985ZM73.5381 28.9765H74.4401V38.9315H73.5381V28.9765ZM74.2311 33.0685H76.0681V33.8385H74.2311V33.0685ZM66.7401 30.5715H72.6031V31.3195H66.7401V30.5715ZM69.7211 32.1335C70.1905 32.1335 70.6048 32.2325 70.9641 32.4305C71.3308 32.6285 71.6168 32.8998 71.8221 33.2445C72.0348 33.5818 72.1411 33.9742 72.1411 34.4215C72.1411 34.8688 72.0348 35.2648 71.8221 35.6095C71.6168 35.9542 71.3308 36.2255 70.9641 36.4235C70.6048 36.6142 70.1905 36.7095 69.7211 36.7095C69.2518 36.7095 68.8338 36.6142 68.4671 36.4235C68.1078 36.2255 67.8218 35.9542 67.6091 35.6095C67.3965 35.2648 67.2901 34.8688 67.2901 34.4215C67.2901 33.9742 67.3965 33.5818 67.6091 33.2445C67.8218 32.8998 68.1078 32.6285 68.4671 32.4305C68.8338 32.2325 69.2518 32.1335 69.7211 32.1335ZM69.7211 32.8925C69.4205 32.8925 69.1528 32.9585 68.9181 33.0905C68.6835 33.2225 68.4965 33.4022 68.3571 33.6295C68.2251 33.8568 68.1591 34.1208 68.1591 34.4215C68.1591 34.7222 68.2251 34.9898 68.3571 35.2245C68.4965 35.4518 68.6835 35.6315 68.9181 35.7635C69.1528 35.8882 69.4205 35.9505 69.7211 35.9505C70.0145 35.9505 70.2785 35.8882 70.5131 35.7635C70.7478 35.6315 70.9311 35.4518 71.0631 35.2245C71.2025 34.9898 71.2721 34.7222 71.2721 34.4215C71.2721 34.1208 71.2025 33.8568 71.0631 33.6295C70.9311 33.4022 70.7478 33.2225 70.5131 33.0905C70.2785 32.9585 70.0145 32.8925 69.7211 32.8925ZM69.2481 29.0975H70.1611V30.9015H69.2481V29.0975ZM84.1633 28.9765H85.0763V38.9315H84.1633V28.9765ZM81.2483 30.0545H82.1503C82.1503 30.7732 82.0623 31.4662 81.8863 32.1335C81.7176 32.8008 81.4499 33.4352 81.0833 34.0365C80.7166 34.6305 80.2399 35.1842 79.6533 35.6975C79.0666 36.2108 78.3553 36.6692 77.5193 37.0725L77.0353 36.3355C77.9959 35.8735 78.7879 35.3345 79.4113 34.7185C80.0346 34.1025 80.4966 33.4168 80.7973 32.6615C81.0979 31.8988 81.2483 31.0775 81.2483 30.1975V30.0545ZM77.4973 30.0545H81.6333V30.7915H77.4973V30.0545Z" fill="black"/>
</svg>
