<svg width="20" height="21" viewBox="0 0 20 21" fill="none" xmlns="http://www.w3.org/2000/svg">
<circle cx="15.8767" cy="3.94917" r="0.5" fill="black" stroke="black" stroke-width="0.630276"/>
<path d="M0.547099 13.9505V3.68905C0.477586 3.01089 0.780032 1.57524 2.51891 1.15977C2.58586 1.14378 2.65547 1.13696 2.7243 1.13696H17.2694C17.3221 1.13696 17.3743 1.1404 17.4258 1.15159C17.9582 1.26751 18.9626 1.77948 19.359 3.05738C19.3848 3.14085 19.3955 3.2282 19.3955 3.3156V9.5907M0.547099 13.9505C0.547099 14.9075 0.547099 17.098 0.547099 18.2039C0.547099 19.2678 1.82645 19.7937 2.53907 19.9426C2.59351 19.9539 2.64664 19.9587 2.70226 19.9593C7.63965 20.0124 17.5224 20.0854 18.1992 19.9585C18.8379 19.8387 19.2299 18.8667 19.371 18.3081C19.3884 18.2391 19.3955 18.168 19.3955 18.0968V9.5907M0.547099 13.9505L6.03251 5.97238C6.43128 5.39239 7.28851 5.39492 7.68387 5.97723L11.6247 11.7817C12.0037 12.3399 12.8153 12.3703 13.235 11.8421L16.3727 7.89287C16.7635 7.40098 17.5058 7.38707 17.9148 7.86398L19.3955 9.5907" stroke="black"/>
</svg>
