<svg width="19" height="22" viewBox="0 0 19 22" fill="none" xmlns="http://www.w3.org/2000/svg">
<mask id="path-1-inside-1_170_357" fill="white">
<path d="M9.76172 0.409424C14.6297 0.409424 18.576 4.11603 18.5762 8.68872C18.5762 10.638 17.8571 12.4285 16.6572 13.843C16.1833 14.5976 15.6359 15.3479 15.0576 16.0667C13.5758 17.9083 11.8444 19.6161 10.5078 20.7971C9.97054 21.2719 9.17138 21.2842 8.61816 20.8323C5.03114 17.9002 3.03731 14.9411 2.02246 12.6555C1.33689 11.4777 0.947266 10.1257 0.947266 8.68872C0.947466 4.11603 4.89375 0.409424 9.76172 0.409424Z"/>
</mask>
<path d="M9.76172 0.409424C14.6297 0.409424 18.576 4.11603 18.5762 8.68872C18.5762 10.638 17.8571 12.4285 16.6572 13.843C16.1833 14.5976 15.6359 15.3479 15.0576 16.0667C13.5758 17.9083 11.8444 19.6161 10.5078 20.7971C9.97054 21.2719 9.17138 21.2842 8.61816 20.8323C5.03114 17.9002 3.03731 14.9411 2.02246 12.6555C1.33689 11.4777 0.947266 10.1257 0.947266 8.68872C0.947466 4.11603 4.89375 0.409424 9.76172 0.409424Z" fill="white"/>
<path d="M18.5762 8.68872H19.5762V8.68868L18.5762 8.68872ZM16.6572 13.843L15.8946 13.1962L15.8484 13.2507L15.8104 13.3112L16.6572 13.843ZM15.0576 16.0667L15.8367 16.6935L15.8367 16.6935L15.0576 16.0667ZM10.5078 20.7971L11.17 21.5465L11.17 21.5465L10.5078 20.7971ZM8.61816 20.8323L7.98529 21.6065L7.98549 21.6067L8.61816 20.8323ZM2.02246 12.6555L2.93642 12.2497L2.91423 12.1997L2.88672 12.1525L2.02246 12.6555ZM0.947266 8.68872L-0.0527344 8.68868V8.68872H0.947266ZM9.76172 0.409424V1.40942C14.1373 1.40942 17.576 4.72639 17.5762 8.68876L18.5762 8.68872L19.5762 8.68868C19.5759 3.50568 15.1221 -0.590576 9.76172 -0.590576V0.409424ZM18.5762 8.68872H17.5762C17.5762 10.3852 16.9517 11.9499 15.8946 13.1962L16.6572 13.843L17.4198 14.4899C18.7624 12.9071 19.5762 10.8907 19.5762 8.68872H18.5762ZM16.6572 13.843L15.8104 13.3112C15.3613 14.0262 14.8378 14.7446 14.2785 15.4398L15.0576 16.0667L15.8367 16.6935C16.434 15.9512 17.0054 15.169 17.5041 14.3748L16.6572 13.843ZM15.0576 16.0667L14.2785 15.4398C12.8406 17.2268 11.1513 18.894 9.84565 20.0478L10.5078 20.7971L11.17 21.5465C12.5375 20.3381 14.311 18.5897 15.8367 16.6935L15.0576 16.0667ZM10.5078 20.7971L9.84566 20.0477C9.67775 20.1961 9.42686 20.2017 9.25084 20.0579L8.61816 20.8323L7.98549 21.6067C8.9159 22.3668 10.2633 22.3476 11.17 21.5465L10.5078 20.7971ZM8.61816 20.8323L9.25104 20.058C5.77956 17.2204 3.88479 14.3856 2.93642 12.2497L2.02246 12.6555L1.10851 13.0613C2.18983 15.4966 4.28272 18.5801 7.98529 21.6065L8.61816 20.8323ZM2.02246 12.6555L2.88672 12.1525C2.28641 11.1211 1.94727 9.94192 1.94727 8.68872H0.947266H-0.0527344C-0.0527344 10.3096 0.38736 11.8342 1.1582 13.1586L2.02246 12.6555ZM0.947266 8.68872L1.94727 8.68876C1.94744 4.72639 5.38613 1.40942 9.76172 1.40942V0.409424V-0.590576C4.40138 -0.590576 -0.0525071 3.50568 -0.0527344 8.68868L0.947266 8.68872Z" fill="black" mask="url(#path-1-inside-1_170_357)"/>
<circle cx="9.76154" cy="9.08429" r="2.85822" fill="white" stroke="black"/>
</svg>
