<svg width="136" height="115" viewBox="0 0 136 115" fill="none" xmlns="http://www.w3.org/2000/svg">
<g filter="url(#filter0_d_32_401)">
<path d="M128.915 59.2862C129.763 63.0155 127.783 81.3955 106.278 94.7144C91.0413 104.151 74.5266 104.628 60.1551 102.589C54.2423 101.75 48.6923 100.485 43.7434 99.2428C35.3175 97.1276 27.8353 92.1692 22.4455 87.5222C19.1472 84.6785 16.6324 81.9513 15.1643 80.0636C10.3659 74.5301 8.69305 68.3531 8.50349 63.0155C8.33534 58.2809 9.33424 54.2067 10.354 51.8276C14.8813 51.8276 70.3417 47.5656 97.5059 47.5656C111.897 47.5656 119.617 49.8085 123.821 52.4723C127.553 54.8366 128.515 57.5326 128.915 59.2862Z" fill="#C5F6D9"/>
<path d="M10.354 51.8276C14.8813 51.8276 70.3417 47.5656 97.5059 47.5656C111.897 47.5656 119.617 49.8085 123.821 52.4723M10.354 51.8276C30.3499 66.6418 81.0376 87.5104 123.821 52.4723M10.354 51.8276C9.33424 54.2067 8.33534 58.2809 8.50349 63.0155M128.915 59.2862C129.763 63.0155 127.783 81.3955 106.278 94.7144C91.0413 104.151 74.5266 104.628 60.1551 102.589M128.915 59.2862C128.515 57.5326 127.553 54.8366 123.821 52.4723M128.915 59.2862C123.482 76.9737 80.8112 95.5246 60.1551 102.589M8.50349 63.0155C8.69305 68.3531 10.3659 74.5301 15.1643 80.0636C16.6324 81.9513 19.1472 84.6785 22.4455 87.5222M8.50349 63.0155C23.457 73.8482 61.2303 92.4235 92.6956 80.0636C80.3834 86.4567 49.0964 96.8987 22.4455 87.5222M22.4455 87.5222C27.8353 92.1692 35.3175 97.1276 43.7434 99.2428C48.6923 100.485 54.2423 101.75 60.1551 102.589" stroke="#6B4F3B" stroke-width="5"/>
<path d="M53.93 25.4677C52.5963 27.5603 44.6053 32.2213 40.5665 34.4066C40.4211 34.4853 40.2697 34.52 40.106 34.5432C36.1832 35.0989 19.0458 47.8898 15.4473 49.9744C13.4264 51.1452 10.4892 51.2105 8.17526 50.9639C7.25568 50.8659 6.56223 51.9305 7.14197 52.651C25.449 75.4032 68.5702 73.0079 84.7727 68.3545C98.1285 64.5186 103.542 52.9046 104.58 47.577C106.561 36.6556 102.882 26.7996 102.599 23.6031C102.316 20.4066 110.239 13.2144 109.107 11.8825C108.267 10.8942 102.98 12.1213 99.8854 13.0129C99.4757 13.1309 99.0359 12.9799 98.7764 12.6415C92.4535 4.39682 83.4605 2.65203 79.6794 2.82566C55.3448 6.02219 55.6278 22.804 53.93 25.4677Z" fill="#F9F7F0" stroke="#6B4F3B" stroke-width="5"/>
<path d="M15.4473 50.5004C13.2077 51.5546 11.6605 51.8265 10.1549 51.7032C9.05248 51.6129 8.48034 52.8623 9.42341 53.4404C34.0071 68.509 53.9151 61.1233 61.1996 55.1015C61.2597 55.0518 61.3127 54.9944 61.3591 54.9317C71.8767 40.7187 60.9886 33.6258 54.213 31.854C39.782 29.1902 21.1065 47.8366 15.4473 50.5004Z" fill="#F9F7F0" stroke="#6B4F3B" stroke-width="5"/>
<ellipse cx="84.4898" cy="17.465" rx="3.67849" ry="3.4629" fill="#4A3232"/>
</g>
<defs>
<filter id="filter0_d_32_401" x="0.429688" y="0.314514" width="135.14" height="113.757" filterUnits="userSpaceOnUse" color-interpolation-filters="sRGB">
<feFlood flood-opacity="0" result="BackgroundImageFix"/>
<feColorMatrix in="SourceAlpha" type="matrix" values="0 0 0 0 0 0 0 0 0 0 0 0 0 0 0 0 0 0 127 0" result="hardAlpha"/>
<feOffset dy="4"/>
<feGaussianBlur stdDeviation="2"/>
<feComposite in2="hardAlpha" operator="out"/>
<feColorMatrix type="matrix" values="0 0 0 0 0 0 0 0 0 0 0 0 0 0 0 0 0 0 0.25 0"/>
<feBlend mode="normal" in2="BackgroundImageFix" result="effect1_dropShadow_32_401"/>
<feBlend mode="normal" in="SourceGraphic" in2="effect1_dropShadow_32_401" result="shape"/>
</filter>
</defs>
</svg>
