<svg width="133" height="112" viewBox="0 0 133 112" fill="none" xmlns="http://www.w3.org/2000/svg">
<g filter="url(#filter0_d_170_160)">
<path d="M127.331 58.2777C128.18 62.007 126.199 80.387 104.694 93.7059C89.4578 103.142 72.9431 103.62 58.5716 101.581C52.6588 100.742 47.1088 99.4767 42.1599 98.2343C33.734 96.1191 26.2518 91.1607 20.862 86.5137C17.5637 83.67 15.0489 80.9428 13.5808 79.0552C8.78238 73.5216 7.10955 67.3446 6.91999 62.007C6.75185 57.2724 7.75075 53.1982 8.77049 50.8192C13.2979 50.8192 68.7582 46.5571 95.9224 46.5571C110.313 46.5571 118.033 48.8 122.238 51.4638C125.97 53.8281 126.932 56.5241 127.331 58.2777Z" fill="#C5F6D9"/>
<path d="M8.77049 50.8192C13.2979 50.8192 68.7582 46.5571 95.9224 46.5571C110.313 46.5571 118.033 48.8 122.238 51.4638M8.77049 50.8192C28.7664 65.6333 79.4541 86.5019 122.238 51.4638M8.77049 50.8192C7.75075 53.1982 6.75185 57.2724 6.91999 62.007M127.331 58.2777C128.18 62.007 126.199 80.387 104.694 93.7059C89.4578 103.142 72.9431 103.62 58.5716 101.581M127.331 58.2777C126.932 56.5241 125.97 53.8281 122.238 51.4638M127.331 58.2777C121.898 75.9652 79.2277 94.5161 58.5716 101.581M6.91999 62.007C7.10955 67.3446 8.78238 73.5216 13.5808 79.0552C15.0489 80.9428 17.5637 83.67 20.862 86.5137M6.91999 62.007C21.8735 72.8397 59.6468 91.4151 91.1121 79.0552C78.7999 85.4482 47.5129 95.8902 20.862 86.5137M20.862 86.5137C26.2518 91.1607 33.734 96.1191 42.1599 98.2343C47.1088 99.4767 52.6588 100.742 58.5716 101.581" stroke="#6B4F3B" stroke-width="2"/>
<path d="M52.3472 24.4592C51.0135 26.5517 43.0226 31.2128 38.9838 33.398C38.8383 33.4767 38.687 33.5115 38.5233 33.5347C34.6005 34.0903 17.463 46.8813 13.8646 48.9659C11.8437 50.1366 8.90647 50.2019 6.5925 49.9554C5.67291 49.8574 4.97946 50.9219 5.5592 51.6424C23.8663 74.3947 66.9875 71.9994 83.19 67.3459C96.5457 63.5101 101.96 51.896 102.997 46.5685C104.978 35.647 101.299 25.7911 101.016 22.5945C100.734 19.398 108.656 12.2058 107.525 10.8739C106.685 9.88561 101.398 11.1128 98.3026 12.0044C97.8929 12.1224 97.4531 11.9713 97.1936 11.633C90.8707 3.38827 81.8778 1.64348 78.0967 1.81712C53.762 5.01365 54.045 21.7954 52.3472 24.4592Z" fill="#F9F7F0" stroke="#6B4F3B" stroke-width="2"/>
<path d="M13.8641 49.4919C11.6244 50.5461 10.0772 50.818 8.57167 50.6947C7.46923 50.6044 6.89709 51.8538 7.84016 52.4319C32.4238 67.5006 52.3318 60.1148 59.6163 54.093C59.6764 54.0433 59.7295 53.9859 59.7758 53.9232C70.2935 39.7102 59.4053 32.6173 52.6297 30.8455C38.1987 28.1817 19.5233 46.8281 13.8641 49.4919Z" fill="#F9F7F0" stroke="#6B4F3B" stroke-width="2"/>
<ellipse cx="82.907" cy="16.4566" rx="3.67849" ry="3.4629" fill="#4A3232"/>
</g>
<defs>
<filter id="filter0_d_170_160" x="0.34668" y="0.805847" width="132.14" height="110.757" filterUnits="userSpaceOnUse" color-interpolation-filters="sRGB">
<feFlood flood-opacity="0" result="BackgroundImageFix"/>
<feColorMatrix in="SourceAlpha" type="matrix" values="0 0 0 0 0 0 0 0 0 0 0 0 0 0 0 0 0 0 127 0" result="hardAlpha"/>
<feOffset dy="4"/>
<feGaussianBlur stdDeviation="2"/>
<feComposite in2="hardAlpha" operator="out"/>
<feColorMatrix type="matrix" values="0 0 0 0 0 0 0 0 0 0 0 0 0 0 0 0 0 0 0.25 0"/>
<feBlend mode="normal" in2="BackgroundImageFix" result="effect1_dropShadow_170_160"/>
<feBlend mode="normal" in="SourceGraphic" in2="effect1_dropShadow_170_160" result="shape"/>
</filter>
</defs>
</svg>
