<svg width="72" height="16" viewBox="0 0 72 16" fill="none" xmlns="http://www.w3.org/2000/svg">
<path d="M12.364 0.870439V15.4159H9.70774L3.37962 6.26106H3.27308V15.4159H0.197798V0.870439H2.89666L9.17507 10.0182H9.30291V0.870439H12.364ZM19.8196 15.629C18.6974 15.629 17.7315 15.4017 16.9219 14.9471C16.117 14.4879 15.4967 13.8392 15.0611 13.0011C14.6255 12.1583 14.4077 11.1616 14.4077 10.0111C14.4077 8.8889 14.6255 7.90406 15.0611 7.05652C15.4967 6.20898 16.1098 5.54847 16.9006 5.07498C17.696 4.6015 18.6288 4.36476 19.6989 4.36476C20.4186 4.36476 21.0885 4.48076 21.7088 4.71277C22.3338 4.94004 22.8783 5.28332 23.3423 5.7426C23.8111 6.20188 24.1757 6.77953 24.4361 7.47555C24.6965 8.16684 24.8267 8.9765 24.8267 9.90453V10.7355H15.6151V8.8605H21.9787C21.9787 8.42489 21.884 8.039 21.6946 7.70283C21.5052 7.36665 21.2424 7.10387 20.9062 6.91447C20.5748 6.72034 20.1889 6.62328 19.7486 6.62328C19.2893 6.62328 18.8821 6.72981 18.527 6.94288C18.1766 7.15122 17.902 7.43294 17.7031 7.78805C17.5043 8.13843 17.4025 8.52906 17.3977 8.95993V10.7426C17.3977 11.2824 17.4972 11.7488 17.696 12.1417C17.8996 12.5347 18.1861 12.8378 18.5554 13.0508C18.9247 13.2639 19.3627 13.3704 19.8693 13.3704C20.2055 13.3704 20.5133 13.3231 20.7926 13.2284C21.072 13.1337 21.3111 12.9917 21.5099 12.8023C21.7088 12.6129 21.8603 12.3809 21.9645 12.1062L24.7628 12.2909C24.6207 12.9632 24.3295 13.5504 23.8892 14.0523C23.4536 14.5494 22.8902 14.9377 22.1989 15.217C21.5123 15.4917 20.7192 15.629 19.8196 15.629ZM35.8778 7.6176L33.108 7.78805C33.0606 7.55131 32.9588 7.33824 32.8026 7.14885C32.6463 6.95472 32.4403 6.80084 32.1847 6.6872C31.9337 6.56883 31.633 6.50964 31.2827 6.50964C30.8139 6.50964 30.4186 6.60908 30.0966 6.80794C29.7746 7.00207 29.6136 7.26248 29.6136 7.58919C29.6136 7.84961 29.7178 8.06978 29.9261 8.2497C30.1345 8.42962 30.492 8.57404 30.9986 8.68294L32.973 9.08067C34.0336 9.29847 34.8243 9.64885 35.3452 10.1318C35.866 10.6148 36.1264 11.2492 36.1264 12.0352C36.1264 12.7502 35.9157 13.3775 35.4943 13.9173C35.0777 14.4571 34.5047 14.8785 33.7756 15.1815C33.0511 15.4798 32.2154 15.629 31.2685 15.629C29.8243 15.629 28.6738 15.3283 27.8168 14.727C26.9645 14.1209 26.465 13.297 26.3182 12.2554L29.294 12.0991C29.384 12.5395 29.6018 12.8756 29.9474 13.1077C30.2931 13.3349 30.7358 13.4486 31.2756 13.4486C31.8059 13.4486 32.232 13.3468 32.554 13.1432C32.8807 12.9348 33.0464 12.6673 33.0511 12.3406C33.0464 12.066 32.9304 11.8411 32.7031 11.6659C32.4759 11.486 32.1255 11.3487 31.652 11.254L29.7628 10.8775C28.6974 10.6645 27.9044 10.2952 27.3835 9.76959C26.8674 9.24402 26.6094 8.57404 26.6094 7.75964C26.6094 7.05889 26.7988 6.45519 27.1776 5.94856C27.5611 5.44194 28.0985 5.05131 28.7898 4.77669C29.4858 4.50207 30.3002 4.36476 31.233 4.36476C32.6108 4.36476 33.6951 4.65595 34.4858 5.23834C35.2813 5.82072 35.7453 6.61381 35.8778 7.6176ZM43.8342 4.5068V6.77953H37.2646V4.5068H43.8342ZM38.756 1.89317H41.7816V12.0636C41.7816 12.343 41.8242 12.5608 41.9094 12.717C41.9947 12.8685 42.113 12.9751 42.2646 13.0366C42.4208 13.0982 42.6007 13.129 42.8043 13.129C42.9464 13.129 43.0884 13.1171 43.2305 13.0935C43.3725 13.065 43.4814 13.0437 43.5572 13.0295L44.033 15.281C43.8815 15.3283 43.6684 15.3827 43.3938 15.4443C43.1192 15.5106 42.7854 15.5508 42.3924 15.565C41.6632 15.5935 41.024 15.4964 40.4748 15.2738C39.9303 15.0513 39.5065 14.7057 39.2035 14.2369C38.9004 13.7682 38.7513 13.1763 38.756 12.4613V1.89317ZM59.2283 8.14317C59.2283 9.72934 58.9277 11.0788 58.3263 12.1915C57.7298 13.3042 56.9154 14.1541 55.8832 14.7412C54.8557 15.3236 53.7004 15.6148 52.4173 15.6148C51.1246 15.6148 49.9646 15.3212 48.9371 14.7341C47.9097 14.147 47.0977 13.297 46.5011 12.1844C45.9045 11.0717 45.6062 9.72461 45.6062 8.14317C45.6062 6.55699 45.9045 5.20756 46.5011 4.09487C47.0977 2.98218 47.9097 2.13464 48.9371 1.55226C49.9646 0.965136 51.1246 0.671575 52.4173 0.671575C53.7004 0.671575 54.8557 0.965136 55.8832 1.55226C56.9154 2.13464 57.7298 2.98218 58.3263 4.09487C58.9277 5.20756 59.2283 6.55699 59.2283 8.14317ZM56.1104 8.14317C56.1104 7.1157 55.9566 6.24923 55.6488 5.54373C55.3458 4.83824 54.9173 4.3032 54.3633 3.93862C53.8093 3.57404 53.1606 3.39175 52.4173 3.39175C51.6739 3.39175 51.0252 3.57404 50.4712 3.93862C49.9173 4.3032 49.4864 4.83824 49.1786 5.54373C48.8756 6.24923 48.7241 7.1157 48.7241 8.14317C48.7241 9.17063 48.8756 10.0371 49.1786 10.7426C49.4864 11.4481 49.9173 11.9831 50.4712 12.3477C51.0252 12.7123 51.6739 12.8946 52.4173 12.8946C53.1606 12.8946 53.8093 12.7123 54.3633 12.3477C54.9173 11.9831 55.3458 11.4481 55.6488 10.7426C55.9566 10.0371 56.1104 9.17063 56.1104 8.14317ZM64.4751 9.10908V15.4159H61.4496V4.5068H64.3331V6.43152H64.4609C64.7024 5.79705 65.1072 5.29515 65.6754 4.92584C66.2436 4.55178 66.9325 4.36476 67.7422 4.36476C68.4998 4.36476 69.1603 4.53048 69.7237 4.86192C70.2872 5.19336 70.7251 5.66684 71.0376 6.28237C71.3501 6.89317 71.5064 7.62233 71.5064 8.46987V15.4159H68.4808V9.00964C68.4856 8.34203 68.3151 7.8212 67.9695 7.44714C67.6238 7.06836 67.148 6.87896 66.5419 6.87896C66.1347 6.87896 65.7749 6.96656 65.4624 7.14175C65.1546 7.31694 64.9131 7.57262 64.7379 7.90879C64.5675 8.24023 64.4799 8.64033 64.4751 9.10908Z" fill="#4A3232"/>
</svg>
