<svg width="72" height="16" viewBox="0 0 72 16" fill="none" xmlns="http://www.w3.org/2000/svg">
<path d="M12.238 0.316178V14.8616H9.58176L3.25364 5.7068H3.14711V14.8616H0.0718217V0.316178H2.77069L9.04909 9.46391H9.17694V0.316178H12.238ZM19.6936 15.0747C18.5715 15.0747 17.6056 14.8474 16.7959 14.3929C15.991 13.9336 15.3707 13.2849 14.9351 12.4469C14.4995 11.6041 14.2817 10.6074 14.2817 9.4568C14.2817 8.33464 14.4995 7.3498 14.9351 6.50226C15.3707 5.65472 15.9839 4.99421 16.7746 4.52072C17.57 4.04724 18.5028 3.8105 19.5729 3.8105C20.2926 3.8105 20.9626 3.9265 21.5828 4.15851C22.2078 4.38578 22.7523 4.72906 23.2164 5.18834C23.6851 5.64762 24.0497 6.22527 24.3101 6.92129C24.5705 7.61258 24.7007 8.42224 24.7007 9.35027V10.1812H15.4891V8.30624H21.8527C21.8527 7.87063 21.758 7.48474 21.5686 7.14857C21.3792 6.81239 21.1164 6.54961 20.7803 6.36021C20.4488 6.16608 20.0629 6.06902 19.6226 6.06902C19.1633 6.06902 18.7561 6.17555 18.401 6.38862C18.0506 6.59695 17.776 6.87868 17.5771 7.23379C17.3783 7.58417 17.2765 7.9748 17.2718 8.40567V10.1883C17.2718 10.7281 17.3712 11.1945 17.57 11.5875C17.7736 11.9805 18.0601 12.2835 18.4294 12.4966C18.7987 12.7096 19.2367 12.8162 19.7433 12.8162C20.0795 12.8162 20.3873 12.7688 20.6666 12.6741C20.946 12.5794 21.1851 12.4374 21.384 12.248C21.5828 12.0586 21.7343 11.8266 21.8385 11.552L24.6368 11.7366C24.4948 12.409 24.2036 12.9961 23.7632 13.498C23.3276 13.9952 22.7642 14.3834 22.0729 14.6628C21.3863 14.9374 20.5932 15.0747 19.6936 15.0747ZM35.7519 7.06334L32.982 7.23379C32.9346 6.99705 32.8328 6.78398 32.6766 6.59459C32.5203 6.40046 32.3144 6.24658 32.0587 6.13294C31.8077 6.01457 31.5071 5.95538 31.1567 5.95538C30.6879 5.95538 30.2926 6.05481 29.9706 6.25368C29.6486 6.44781 29.4877 6.70822 29.4877 7.03493C29.4877 7.29534 29.5918 7.51552 29.8002 7.69544C30.0085 7.87536 30.366 8.01978 30.8726 8.12868L32.847 8.52641C33.9076 8.74421 34.6984 9.09459 35.2192 9.57754C35.74 10.0605 36.0004 10.695 36.0004 11.481C36.0004 12.1959 35.7897 12.8233 35.3683 13.3631C34.9517 13.9028 34.3788 14.3242 33.6496 14.6273C32.9252 14.9256 32.0895 15.0747 31.1425 15.0747C29.6984 15.0747 28.5478 14.774 27.6908 14.1727C26.8385 13.5667 26.339 12.7428 26.1922 11.7011L29.1681 11.5449C29.258 11.9852 29.4758 12.3214 29.8215 12.5534C30.1671 12.7807 30.6098 12.8943 31.1496 12.8943C31.6799 12.8943 32.106 12.7925 32.428 12.5889C32.7547 12.3806 32.9204 12.1131 32.9252 11.7863C32.9204 11.5117 32.8044 11.2868 32.5771 11.1116C32.3499 10.9317 31.9995 10.7944 31.526 10.6997L29.6368 10.3233C28.5715 10.1102 27.7784 9.74089 27.2575 9.21533C26.7414 8.68976 26.4834 8.01978 26.4834 7.20538C26.4834 6.50463 26.6728 5.90093 27.0516 5.3943C27.4351 4.88767 27.9725 4.49705 28.6638 4.22243C29.3598 3.94781 30.1742 3.8105 31.107 3.8105C32.4848 3.8105 33.5691 4.10169 34.3598 4.68408C35.1553 5.26646 35.6193 6.05955 35.7519 7.06334ZM43.7082 3.95254V6.22527H37.1386V3.95254H43.7082ZM38.6301 1.33891H41.6556V11.5094C41.6556 11.7887 41.6982 12.0065 41.7835 12.1628C41.8687 12.3143 41.9871 12.4208 42.1386 12.4824C42.2948 12.5439 42.4748 12.5747 42.6784 12.5747C42.8204 12.5747 42.9624 12.5629 43.1045 12.5392C43.2465 12.5108 43.3554 12.4895 43.4312 12.4753L43.907 14.7267C43.7555 14.774 43.5425 14.8285 43.2678 14.89C42.9932 14.9563 42.6594 14.9966 42.2664 15.0108C41.5373 15.0392 40.8981 14.9421 40.3488 14.7196C39.8043 14.497 39.3805 14.1514 39.0775 13.6827C38.7745 13.2139 38.6253 12.622 38.6301 11.9071V1.33891ZM59.1024 7.58891C59.1024 9.17508 58.8017 10.5245 58.2004 11.6372C57.6038 12.7499 56.7894 13.5998 55.7572 14.1869C54.7297 14.7693 53.5744 15.0605 52.2913 15.0605C50.9987 15.0605 49.8386 14.7669 48.8112 14.1798C47.7837 13.5927 46.9717 12.7428 46.3751 11.6301C45.7785 10.5174 45.4802 9.17035 45.4802 7.58891C45.4802 6.00273 45.7785 4.6533 46.3751 3.54061C46.9717 2.42792 47.7837 1.58038 48.8112 0.997997C49.8386 0.410875 50.9987 0.117315 52.2913 0.117315C53.5744 0.117315 54.7297 0.410875 55.7572 0.997997C56.7894 1.58038 57.6038 2.42792 58.2004 3.54061C58.8017 4.6533 59.1024 6.00273 59.1024 7.58891ZM55.9845 7.58891C55.9845 6.56144 55.8306 5.69497 55.5228 4.98947C55.2198 4.28398 54.7913 3.74894 54.2373 3.38436C53.6833 3.01978 53.0347 2.83749 52.2913 2.83749C51.5479 2.83749 50.8992 3.01978 50.3453 3.38436C49.7913 3.74894 49.3604 4.28398 49.0526 4.98947C48.7496 5.69497 48.5981 6.56144 48.5981 7.58891C48.5981 8.61637 48.7496 9.48285 49.0526 10.1883C49.3604 10.8938 49.7913 11.4289 50.3453 11.7935C50.8992 12.158 51.5479 12.3403 52.2913 12.3403C53.0347 12.3403 53.6833 12.158 54.2373 11.7935C54.7913 11.4289 55.2198 10.8938 55.5228 10.1883C55.8306 9.48285 55.9845 8.61637 55.9845 7.58891ZM64.3492 8.55482V14.8616H61.3236V3.95254H64.2071V5.87726H64.335C64.5764 5.24279 64.9813 4.74089 65.5494 4.37158C66.1176 3.99752 66.8066 3.8105 67.6162 3.8105C68.3738 3.8105 69.0343 3.97622 69.5977 4.30766C70.1612 4.63909 70.5992 5.11258 70.9117 5.72811C71.2242 6.33891 71.3804 7.06807 71.3804 7.91561V14.8616H68.3548V8.45538C68.3596 7.78777 68.1891 7.26694 67.8435 6.89288C67.4978 6.5141 67.022 6.3247 66.4159 6.3247C66.0087 6.3247 65.6489 6.4123 65.3364 6.58749C65.0286 6.76267 64.7871 7.01836 64.6119 7.35453C64.4415 7.68597 64.3539 8.08607 64.3492 8.55482Z" fill="black"/>
</svg>
